<svg id="admin" xmlns="http://www.w3.org/2000/svg" viewBox="0 0 295.77 377.84"><title>admin</title><path d="M287,463.1c4.93,11.34,15.29,13.55,24.84,15.31,17.89,3.29,36.07,3.83,53.74-1.87,7.06-2.28,14.44-4.7,17.08-13.09,6.15,3.71,11.89,7.52,17.95,10.76,12.9,6.91,27.06,9.93,41.27,12.69,1,0.19,2,.34,2.95.54,22.23,4.62,31.51,13.43,34.89,35.88,2.12,14.1,2.49,28.49,3.05,42.77,0.3,7.55-4.65,13.13-10.62,16.51-9.06,5.13-18.49,10.06-28.38,13.13-13,4-26.51,6.29-39.88,9-3.12.62-4.77,1.49-5.93,4.69-9.79,27-34.4,44.61-62,44.63-29.58,0-53.65-16.73-63.93-44.69-1-2.85-2.39-4.1-5.5-4.56-19.46-2.9-38.72-6.74-56.74-15A75,75,0,0,1,198.15,583c-7.37-5.17-11.52-11.87-11.15-21.5,0.58-15.16,1-30.24,4.84-45.07,4.09-15.92,14.07-25.18,30.08-28.26,7.35-1.41,14.72-2.77,22-4.53A113.74,113.74,0,0,0,287,463.1Zm47.77,176c28.34,0.24,51.93-23.15,52.09-51.65,0.16-28.27-23.39-51.93-51.8-52-28-.11-51.6,23.32-51.81,51.51A52,52,0,0,0,334.73,639.08Z" transform="translate(-186.97 -276.15)"/><path d="M337.94,461.31c-14.41.64-24.06-4.47-32.86-11.19-15.5-11.83-25.6-27.72-33.13-45.47-0.9-2.12-2.79-3.83-4.27-5.69a41.11,41.11,0,0,1-3.5-4.18c-5.41-9.05-7-18.95-6-29.32,0.15-1.64.16-3.76,1.14-4.79,7.18-7.56,3.54-17.36,5.7-25.91,2.39-9.45,4.62-19,8.1-28.09,2.79-7.28,9-12.08,15.83-16,8.93-5.17,17.48-10.93,27.92-12.82,21.91-4,41.93-1.07,61.64,10.91,18.26,11.1,24.23,27.2,26.53,46.36,0.5,4.13.66,8.3,1.15,12.43s0.78,8,3.62,11.54c1.68,2.11,2.12,5.64,2.15,8.54,0.13,12.18-.94,24-11.34,32.67-1,.85-1.28,2.64-1.86,4-7.06,16.78-16.39,32-30.59,43.76C358.63,455.93,348.18,461.81,337.94,461.31Z" transform="translate(-186.97 -276.15)"/><path d="M309.8,574.87a10.84,10.84,0,0,0-1.35-2.56c-4.82-4.71-.79-7.38,2.13-10.64s5.61-4.05,9.37-1.09a4.17,4.17,0,0,0,6.89-3.05c0.4-5.17,3.36-5.67,7.5-5.53s8.48-.7,8.86,5.72c0.21,3.51,4.07,5,7,2.74,5.51-4.34,7.87.45,11.17,3.2s2.83,5.36.42,8.52a4.11,4.11,0,0,0,2.86,6.85c4.42,0.53,6,2.64,5.62,7-0.39,4.08,1.4,9-5.54,9.5-3.83.3-5.18,4.07-2.72,7.27,2.6,3.38,2.25,5.85-.9,8.5s-5.41,7.23-10.73,3c-3.29-2.63-6.69-.92-7.31,3.48-0.53,3.82-2.46,5.15-6.07,4.81a21.51,21.51,0,0,0-4.49,0c-3.34.39-4.82-1.17-5.45-4.32-1-5.1-3.82-6.49-7.87-3.63-5.29,3.74-7.34-1-10.35-3.42s-3.5-4.78-1-8.08c2.8-3.71,1.42-7-3.28-7.69-3.88-.59-4.87-2.54-4.8-6.1,0.1-5-.94-10.4,6.9-10.5C307.72,578.72,308.77,576.19,309.8,574.87ZM349,587.37a14.36,14.36,0,0,0-14-14.1c-7.24,0-13.72,6.35-13.9,13.68A14,14,0,1,0,349,587.37Z" transform="translate(-186.97 -276.15)"/></svg>