<?xml version="1.0" encoding="utf-8"?>
<!-- Generator: Adobe Illustrator 24.0.2, SVG Export Plug-In . SVG Version: 6.00 Build 0)  -->
<svg version="1.1" id="Illustartion_copy" xmlns="http://www.w3.org/2000/svg" xmlns:xlink="http://www.w3.org/1999/xlink" x="0px"
	 y="0px" viewBox="0 0 840 480" style="enable-background:new 0 0 840 480;" xml:space="preserve">
<style type="text/css">
	.st0{opacity:0.2;fill:none;stroke:#8A9ADC;stroke-width:2;stroke-linecap:round;stroke-linejoin:round;stroke-miterlimit:10;}
	.st1{opacity:0.4;fill:none;stroke:#8A9ADC;stroke-width:2;stroke-linecap:round;stroke-linejoin:round;stroke-miterlimit:10;}
	.st2{opacity:0.6;fill:none;stroke:#8A9ADC;stroke-width:2;stroke-linecap:round;stroke-linejoin:round;stroke-miterlimit:10;}
	.st3{opacity:0.3;fill:url(#SVGID_1_);}
	.st4{opacity:0.4;fill:url(#SVGID_2_);}
	.st5{fill:url(#SVGID_3_);}
	.st6{opacity:0.7;fill:url(#SVGID_4_);}
	.st7{fill:none;stroke:#FFFFFF;stroke-width:2;stroke-linecap:round;stroke-linejoin:round;stroke-miterlimit:10;}
	.st8{fill:none;stroke:#8A9ADC;stroke-width:2;stroke-linecap:round;stroke-linejoin:round;stroke-miterlimit:10;}
	.st9{opacity:0.7;fill:url(#SVGID_5_);}
	.st10{opacity:0.7;fill:url(#SVGID_6_);}
	.st11{fill:#B5FFF1;}
	.st12{fill:#21FFD2;}
	.st13{fill:#14997E;}
	.st14{fill:#47FFDC;}
	.st15{fill:#CDFFF5;}
	.st16{fill:url(#SVGID_7_);}
	.st17{opacity:0.7;fill:url(#SVGID_8_);}
	.st18{fill:none;stroke:#1ACCA8;stroke-width:2;stroke-linecap:round;stroke-linejoin:round;stroke-miterlimit:10;}
	.st19{clip-path:url(#SVGID_10_);}
	.st20{fill:#FFFFFF;}
	.st21{opacity:0.7;fill:url(#SVGID_11_);}
	.st22{opacity:0.7;clip-path:url(#SVGID_13_);fill:url(#SVGID_14_);}
	.st23{opacity:0.6;clip-path:url(#SVGID_13_);}
	.st24{fill:#8A9ADC;}
	.st25{fill:#FFFFFF;stroke:#8A9ADC;stroke-width:2;stroke-linecap:round;stroke-linejoin:round;stroke-miterlimit:10;}
	.st26{fill:#CF3239;}
	.st27{fill:url(#SVGID_15_);}
	.st28{opacity:0.7;fill:url(#SVGID_16_);}
	.st29{opacity:0.7;fill:url(#SVGID_17_);}
	.st30{opacity:0.7;fill:url(#SVGID_18_);}
	.st31{opacity:0.6;}
	
		.st32{opacity:0.2;fill:none;stroke:url(#SVGID_19_);stroke-width:2;stroke-linecap:round;stroke-linejoin:round;stroke-miterlimit:10;}
	
		.st33{opacity:0.4;fill:none;stroke:url(#SVGID_20_);stroke-width:2;stroke-linecap:round;stroke-linejoin:round;stroke-miterlimit:10;}
	
		.st34{opacity:0.6;fill:none;stroke:url(#SVGID_21_);stroke-width:2;stroke-linecap:round;stroke-linejoin:round;stroke-miterlimit:10;}
	
		.st35{opacity:0.7;fill:none;stroke:url(#SVGID_22_);stroke-width:2;stroke-linecap:round;stroke-linejoin:round;stroke-miterlimit:10;}
	
		.st36{opacity:0.8;fill:none;stroke:url(#SVGID_23_);stroke-width:2;stroke-linecap:round;stroke-linejoin:round;stroke-miterlimit:10;}
	.st37{fill:none;stroke:url(#SVGID_24_);stroke-width:2;stroke-linecap:round;stroke-linejoin:round;stroke-miterlimit:10;}
</style>
<g>
	<path class="st0" d="M303.5,351.5c0-19.1,9.9-36.5,33.7-50.3c45.3-26.3,119-26.3,164.5,0c23.9,13.8,34.3,32.2,34.3,50.3"/>
	<path class="st0" d="M524.5,336.3c0,17.2-8.9,32.9-30.4,45.4c-40.8,23.7-107.2,23.7-148.3,0c-21.6-12.5-30.9-29-30.9-45.3"/>
	<path class="st1" d="M514.2,336.7c0,15-8,28.8-27.4,39.7c-36.8,20.8-96.7,20.8-133.8,0c-19.5-10.9-27.9-25.4-27.9-39.6"/>
	<path class="st2" d="M504.2,336.7c0,13-7.2,24.8-24.5,34.2c-32.9,17.9-86.5,17.9-119.6,0c-17.4-9.4-24.9-21.9-24.9-34.2"/>
	<linearGradient id="SVGID_1_" gradientUnits="userSpaceOnUse" x1="499.2927" y1="193.0603" x2="340.304" y2="68.8448">
		<stop  offset="0" style="stop-color:#8A9ADC;stop-opacity:0"/>
		<stop  offset="1" style="stop-color:#8A9ADC;stop-opacity:0.9"/>
	</linearGradient>
	<path class="st3" d="M501.8,83.1c45.6,26.4,45.8,69.3,0.5,95.7s-119,26.4-164.6,0s-45.8-69.3-0.5-95.7S456.2,56.7,501.8,83.1z"/>
	<linearGradient id="SVGID_2_" gradientUnits="userSpaceOnUse" x1="303.8607" y1="276.5867" x2="536.3214" y2="276.5867">
		<stop  offset="2.602164e-02" style="stop-color:#8A9ADC;stop-opacity:0.9"/>
		<stop  offset="0.2876" style="stop-color:#8A9ADC;stop-opacity:0"/>
		<stop  offset="0.7979" style="stop-color:#8A9ADC;stop-opacity:0.6"/>
		<stop  offset="0.8429" style="stop-color:#8A9ADC;stop-opacity:0"/>
		<stop  offset="1" style="stop-color:#8A9ADC;stop-opacity:0.9"/>
	</linearGradient>
	<path class="st4" d="M536.2,137.2c0.1,17.2-11.2,34.4-33.8,47.5c-45.2,26.2-118.7,26.2-164.2,0c-22.8-13.1-34.2-30.4-34.3-47.6
		c0,0-0.1,0.1-0.1,0.1h-0.1v209.1c0,18.1,10.4,36.3,34.3,50.1c45.5,26.2,119,26.2,164.2,0c23.8-13.8,33.7-31.2,33.7-50.2l0.3-15.7
		L536.2,137.2L536.2,137.2z"/>
	<linearGradient id="SVGID_3_" gradientUnits="userSpaceOnUse" x1="464.2354" y1="241.1306" x2="526.1746" y2="241.1306">
		<stop  offset="6.209936e-03" style="stop-color:#C2C8EC"/>
		<stop  offset="1" style="stop-color:#E8E8F7"/>
	</linearGradient>
	<polygon class="st5" points="419.8,336.4 524.9,336.4 524.9,145.9 420.1,145.9 	"/>
	<g>
		<g>
			<linearGradient id="SVGID_4_" gradientUnits="userSpaceOnUse" x1="493.4496" y1="197.6897" x2="524.8889" y2="197.6897">
				<stop  offset="0" style="stop-color:#21FFD2"/>
				<stop  offset="0.1449" style="stop-color:#2BF8D3"/>
				<stop  offset="0.3919" style="stop-color:#46E6D6"/>
				<stop  offset="0.7088" style="stop-color:#72C9DC"/>
				<stop  offset="1" style="stop-color:#A0AAE1"/>
			</linearGradient>
			<polygon class="st6" points="493.4,201.8 493.4,193.6 524.9,193.5 524.9,201.8 			"/>
			<line class="st7" x1="493.6" y1="201.8" x2="524.6" y2="201.7"/>
			<line class="st8" x1="493.6" y1="193.6" x2="524.6" y2="193.5"/>
		</g>
		<g>
			<linearGradient id="SVGID_5_" gradientUnits="userSpaceOnUse" x1="493.4496" y1="242.836" x2="524.8889" y2="242.836">
				<stop  offset="0" style="stop-color:#21FFD2"/>
				<stop  offset="0.1449" style="stop-color:#2BF8D3"/>
				<stop  offset="0.3919" style="stop-color:#46E6D6"/>
				<stop  offset="0.7088" style="stop-color:#72C9DC"/>
				<stop  offset="1" style="stop-color:#A0AAE1"/>
			</linearGradient>
			<polygon class="st9" points="493.4,246.9 493.4,238.8 524.9,238.7 524.9,247 			"/>
			<line class="st7" x1="493.6" y1="246.9" x2="524.6" y2="246.8"/>
			<line class="st8" x1="493.6" y1="238.8" x2="524.6" y2="238.7"/>
		</g>
		<g>
			<linearGradient id="SVGID_6_" gradientUnits="userSpaceOnUse" x1="493.4496" y1="289.0684" x2="524.8889" y2="289.0684">
				<stop  offset="0" style="stop-color:#21FFD2"/>
				<stop  offset="0.1449" style="stop-color:#2BF8D3"/>
				<stop  offset="0.3919" style="stop-color:#46E6D6"/>
				<stop  offset="0.7088" style="stop-color:#72C9DC"/>
				<stop  offset="1" style="stop-color:#A0AAE1"/>
			</linearGradient>
			<polygon class="st10" points="493.4,293.1 493.4,285 524.9,284.9 524.9,293.2 			"/>
			<line class="st7" x1="493.6" y1="293.1" x2="524.6" y2="293.1"/>
			<line class="st8" x1="493.6" y1="285" x2="524.6" y2="284.9"/>
		</g>
	</g>
	<g>
		<g>
			<path class="st11" d="M407.7,354.6v6.7c8.6,0.8,18.1,0.7,26.7-0.2v-6.7C425.8,355.3,416.3,355.4,407.7,354.6z"/>
			<path class="st12" d="M394.4,334.7v1.8c3.8,0.8,7.6,1.5,12.4,1.9v-7.5c-10.5-1.1-21.9-3.5-30.5-7.3v7.5
				c5.7,2.3,11.4,4.1,18.1,5.3V334.7z"/>
			<path class="st11" d="M376.3,331.1v16.1c5.7,2.3,11.4,4.1,18.1,5.3v-16.1C387.7,335.2,382,333.4,376.3,331.1z"/>
			<path class="st13" d="M406.8,329.5v1.3c3.8,0.4,7.6,0.6,12.4,0.6v-23.2c-3.8,0-8.6-0.2-12.4-0.6v2.5v-2.5
				c-10.5-1-21-3.4-30.5-7.1v1.7v-1.7c-2.9-1.2-5.9-2.5-8.6-4c-0.7-0.4-0.9-0.7-1.9-1.1v23.2c1,0.4,1.4,0.7,2,1.1
				c2.6,1.4,5.6,2.7,8.4,3.9v-4.7v4.7c8.6,3.8,20,6.2,30.5,7.3V329.5z"/>
			<path class="st14" d="M419.1,331.5v1.8V331.5c-4.8,0-8.6-0.2-12.4-0.6v7.5c9.5,0.9,18.1,0.9,27.6-0.1v-7.5
				C429.6,331.3,423.9,331.6,419.1,331.5z"/>
			<path class="st11" d="M406.8,292.8c-10.5-1-21-3.4-30.5-7.1v14.9c9.5,3.7,20,6.1,30.5,7.1V292.8z"/>
			<path class="st11" d="M434.4,338.3c4.8-0.5,10.5-1.4,15.2-2.5v-7.5c-4.8,1.1-10.5,2-15.2,2.5V338.3z"/>
			<path class="st14" d="M449.6,328.2V305c-4.8,1.1-10.5,2-15.2,2.5v23.2C439.1,330.2,444.9,329.4,449.6,328.2z"/>
			<path class="st15" d="M406.8,292.1v0.7c4.8,0.4,9.5,0.6,14.3,0.6v-23.2c-3.8,0-7.6-0.1-11.4-0.4v1.9v-1.9
				c-10.5-0.8-20-2.7-29.5-5.9v2.7v-2.7c-3.8-1.6-8.6-3.4-12.6-5.5c-0.7-0.4-0.8-0.7-1.7-1.1v23.2c1,0.4,1.2,0.7,1.9,1.1
				c2.7,1.5,5.7,2.8,8.6,4v-2.4v2.4c9.5,3.7,20,6.1,30.5,7.1V292.1z"/>
			<path class="st14" d="M443.9,268.1c10.5-1.9,20-5.1,28.3-9.7c3.5-1.9,7-4,8.9-6.1v-4.7v4.7c2.9-2.4,5.7-5,7.6-7.7v-11.8
				c-3.8,5-8.9,9.8-16.3,13.8c-1.8,1-3.7,1.9-5.6,2.8v2.3v-2.3c-7.6,3.1-15.2,5.4-22.9,6.9V268.1z"/>
			<path class="st13" d="M443.9,268.1v1.4V268.1c-3.8,0.6-6.7,1-9.5,1.3v2.9v-2.9c-4.8,0.5-8.6,0.7-13.3,0.8v23.2
				c18.1-0.1,37.2-4,50.5-11.6v-4.6v4.6c0-0.1,0.2-0.1,0.3-0.2c3.5-1.9,7.3-4,9.2-6.1v-23.2c-1.9,2.2-5.4,4.2-8.9,6.1
				C463.9,262.9,454.4,266.2,443.9,268.1z"/>
			<path class="st12" d="M434.4,246.7v-1.7c-8.6,0.9-18.1,1-26.7,0.2v0.6v-0.6c-3.8-0.4-8.6-1-12.4-1.7v12.7
				c4.8,0.9,9.5,1.6,14.3,1.9v-2.5v2.5c8.6,0.6,17.1,0.5,24.8-0.4v-1.8v1.8c2.9-0.3,5.7-0.8,9.5-1.3v-3.6v3.6
				c7.6-1.5,15.2-3.8,22.9-6.9v-12.7c-9.5,4.2-21,7-32.4,8.2V246.7z"/>
			<path class="st13" d="M434.4,361c11.4-1.3,22.9-4.1,32.4-8.6v-2v2c1.9-0.8,3.7-1.6,5.4-2.5c0.7-0.4,1.3-0.7,2.3-1.1v-6.7
				c-1,0.4-1.4,0.7-2.1,1.1c-4.8,2.6-10.3,4.8-16,6.6v0.6V350c-6.7,2.1-14.3,3.6-21.9,4.4V361z"/>
			<path class="st11" d="M443.9,230.9c8.6-1.7,18.1-4.4,25.7-8.2v-6.8c-7.6,3.8-17.1,6.5-25.7,8.2V230.9z"/>
			<path class="st15" d="M449.6,335.7c1.9-0.6,4.8-1.2,6.7-1.9v-1.8v1.8c5.7-1.8,11.2-3.9,16-6.6c0.7-0.4,1.1-0.7,2.1-1.1v-7.5
				c-1,0.4-1.6,0.7-2.2,1.1c-3.1,1.7-6.4,3.2-10.2,4.5v1.8v-1.8c-3.8,1.6-8.6,2.9-12.4,4V335.7z"/>
			<path class="st15" d="M421,294.3v-1c-4.8,0-9.5-0.2-14.3-0.6v14.9c3.8,0.4,8.6,0.6,12.4,0.6v-1.9v1.9c4.8,0,10.5-0.2,15.2-0.8
				v-3.1v3.1c4.8-0.5,10.5-1.4,15.2-2.5v-2.2v2.2c3.8-1.1,8.6-2.4,12.4-4v-2.3v2.3c3.8-1.3,6.7-2.7,9.5-4.3v-14.9
				c-13.3,7.6-32.4,11.5-50.5,11.6V294.3z"/>
			<path class="st15" d="M449.6,336.8v-1.1c-4.8,1.1-10.5,2-15.2,2.5v1.4v-1.4c-9.5,1-18.1,1-27.6,0.1v0.7v-0.7
				c-4.8-0.4-8.6-1.1-12.4-1.9v16.1c3.8,0.9,8.6,1.6,13.3,2v-0.9v0.9c8.6,0.8,18.1,0.7,26.7-0.2v-2.3v2.3c7.6-0.8,15.2-2.3,21.9-4.4
				v-16.1c-1.9,0.7-4.8,1.3-6.7,1.9V336.8z"/>
			<path class="st13" d="M449.6,328.2c3.8-1.1,8.6-2.4,12.4-4V301c-3.8,1.6-8.6,2.9-12.4,4V328.2z"/>
			<path class="st14" d="M443.9,234v-3.1c-3.8,0.6-6.7,1-9.5,1.3v12.7c11.4-1.2,22.9-4,32.4-8.2v-3.1v3.1c1.9-0.9,3.6-1.8,5.4-2.8
				c2.7-1.5,5.1-3,7-4.6v-12.7c-1.9,1.6-4.3,3.2-7,4.6c-0.9,0.5-1.6,1-2.5,1.5v2.1v-2.1c-7.6,3.8-17.1,6.5-25.7,8.2V234z"/>
			<path class="st15" d="M381,220.1v1.1V220.1c-2.9-1.1-6.7-2.3-9.5-3.7v0.9v-0.9c-1-0.7-2.8-1.3-4.2-2.1c-1.9-1-3.5-2.1-5.4-3.2
				v6.8c1.9,1.1,3.8,2.2,5.7,3.2c6.2,3.4,13.4,6,21,7.9v-6.8C385.8,221.6,383.9,220.9,381,220.1z"/>
			<path class="st11" d="M380.1,263.9v-11.8c-2.9-1.2-6.7-2.6-9.5-4.2v2.1v-2.1c-1-0.4-2.1-0.9-2.9-1.3c-3.5-1.9-6.6-3.9-9.5-6v11.8
				c2.9,1.7,4.8,3.4,7.6,5v-2.1v2.1c1,0.4,1.1,0.7,1.7,1.1C371.5,260.5,376.3,262.4,380.1,263.9z"/>
			<path class="st12" d="M434.4,232.2v-1.4V232.2c2.9-0.3,5.7-0.8,9.5-1.3V224c-5.7,0.9-10.5,1.5-15.2,1.8v6.8
				C430.6,232.6,432.5,232.4,434.4,232.2z"/>
			<path class="st14" d="M388.7,222.3v6.8c5.7,1.6,12.4,2.7,19.1,3.3v-1.2v1.2c6.7,0.6,13.3,0.7,21,0.3v-6.8
				c-2.9,0.1-4.8,0.2-7.6,0.3v0.5v-0.5C409.6,226.2,399.1,224.9,388.7,222.3z"/>
			<path class="st11" d="M368,327.2c-2.5-1.4-5-2.8-6.9-4.4V339c1.9,1.5,4.4,3,6.9,4.3c2.6,1.4,5.5,2.7,8.3,3.9v-16.1
				C373.4,330,370.6,328.7,368,327.2z"/>
			<path class="st12" d="M484.9,205.3v-16.3c-2.9,2.3-5.7,4.6-8.6,6.6V212C479.2,209.9,482,207.7,484.9,205.3z"/>
			<path class="st11" d="M381,220.1c2.9,0.8,4.8,1.5,7.6,2.1v-4.7v4.7c10.5,2.7,21,4,32.4,3.8v-16.3c-9.5,0.1-19.1-0.8-27.6-2.7v0.3
				v-0.3c-4.8-0.9-8.6-2-12.4-3.3V220.1z"/>
			<path class="st11" d="M357.2,289.5v23.2c2.9,2.1,5.7,4,8.6,5.9v-23.2C362.9,293.6,360.1,291.6,357.2,289.5z"/>
			<path class="st14" d="M381,203.9c-2.9-1.1-6.7-2.3-9.5-3.7v16.3c2.9,1.4,6.7,2.6,9.5,3.7V203.9z"/>
			<path class="st15" d="M428.7,236.8v-4.1c-7.6,0.4-14.3,0.3-21-0.3v12.7c8.6,0.8,18.1,0.7,26.7-0.2v-12.7
				c-1.9,0.2-3.8,0.4-5.7,0.5V236.8z"/>
			<path class="st15" d="M443.9,268.1v-11.8c-3.8,0.6-6.7,1-9.5,1.3v11.8C437.2,269.1,440.1,268.6,443.9,268.1z"/>
			<path class="st13" d="M380.1,263.9c9.5,3.1,19.1,5.1,29.5,5.9V258c-4.8-0.4-9.5-1-14.3-1.9v2.3v-2.3c-4.8-1-10.5-2.3-15.2-4
				V263.9z"/>
			<path class="st11" d="M421,270.2v-2.6V270.2c4.8,0,8.6-0.3,13.3-0.8v-11.8c-7.6,0.9-16.2,1-24.8,0.4v11.8
				C413.4,270.1,417.2,270.2,421,270.2z"/>
			<path class="st14" d="M380.1,250.1v2.1c4.8,1.6,10.5,3,15.2,4v-12.7c-9.5-1.7-17.1-4.5-24.8-8.2v12.7c2.9,1.6,6.7,3,9.5,4.2
				V250.1z"/>
			<path class="st14" d="M362,211.1c-1.9-1.2-2.9-2.4-4.8-3.7v0.9v-0.9c-1.9-2-3.8-4-5.7-6.1v6.8c1.9,2.1,3.8,4.2,5.7,6.1v-1.8v1.8
				c1.9,1.3,2.9,2.5,4.8,3.7V211.1z"/>
			<path class="st11" d="M395.3,242.2v1.2c3.8,0.8,8.6,1.3,12.4,1.7v-12.7c-6.7-0.6-13.3-1.7-19.1-3.3v1.3v-1.3
				c-7.6-1.9-14.8-4.6-21-7.9c-1.9-1-3.8-2.1-5.7-3.2v2.4v-2.4c-1.9-1.2-2.9-2.4-4.8-3.7v12.7c2.9,2.5,6.5,4.8,10.5,7
				c0.8,0.5,1.9,0.9,2.8,1.3v-1.6v1.6c7.6,3.7,15.2,6.4,24.8,8.2V242.2z"/>
			<path class="st11" d="M362,208.1v3c1.9,1.1,3.5,2.2,5.4,3.2c1.3,0.7,3.2,1.4,4.2,2.1v-16.3c-1-0.7-2.6-1.3-4-2.1
				c-0.7-0.4-0.8-0.7-1.7-1.1v0.4V197c-2.9-1.8-5.7-3.8-8.6-5.9v16.3c1.9,1.3,2.9,2.5,4.8,3.7V208.1z"/>
			<path class="st13" d="M365.8,183.6c-4.8-2.8-8.6-5.8-11.4-9V188c1,1.1,1.9,2.1,2.9,3.1V190v1.1c2.9,2.1,5.7,4,8.6,5.9V183.6z"/>
			<path class="st15" d="M367.5,198.1c1.3,0.7,3,1.4,4,2.1v-1.3v1.3c2.9,1.4,6.7,2.6,9.5,3.7v-1.4v1.4c3.8,1.3,7.6,2.4,12.4,3.3
				v-13.3c-2.9-0.5-4.8-1.1-7.6-1.8v0.6v-0.6c-6.7-1.9-12.7-4.3-18.3-7.3c-0.7-0.4-0.8-0.7-1.7-1.1V197
				C366.7,197.4,366.9,197.7,367.5,198.1z"/>
			<path class="st11" d="M434.4,330.8v-23.2c-4.8,0.6-10.5,0.8-15.2,0.8v23.2C423.9,331.6,429.6,331.3,434.4,330.8z"/>
			<path class="st13" d="M474.4,318.6v7.5c12.4-7.7,19.1-17.6,19.1-27.4v-7.5C493.4,301.1,486.8,310.9,474.4,318.6z"/>
			<path class="st15" d="M474.4,342.3v6.7c1.9-1.4,3.8-2.8,5.7-4.3v-3v3c2.9-1.7,4.8-3.5,5.7-5.3v-3.1v3.1
				c5.7-5.6,7.6-11.7,7.6-17.8v-6.7C493.4,324.7,486.8,334.6,474.4,342.3z"/>
			<path class="st14" d="M474.4,326.2v0.8V326.2c-1,0.4-1.4,0.7-2.1,1.1c-4.8,2.6-10.3,4.8-16,6.6V350c5.7-1.8,11.2-3.9,16-6.6
				c0.7-0.4,1.1-0.7,2.1-1.1v-3.8v3.8c12.4-7.7,19.1-17.6,19.1-27.4v-16.1C493.4,308.6,486.8,318.4,474.4,326.2z"/>
			<path class="st11" d="M471.9,296.5c-0.1,0.1-0.4,0.1-0.4,0.2v2.1v-2.1c-2.9,1.6-5.7,3.1-9.5,4.3v23.2c3.8-1.3,7.1-2.8,10.2-4.5
				c0.7-0.4,1.3-0.7,2.2-1.1v-3.1v3.1c12.4-7.7,19.1-17.6,19.1-27.4V268C493.4,278.3,486.3,288.6,471.9,296.5z"/>
			<path class="st13" d="M485.8,354.3c5.7-5.6,7.6-11.7,7.6-17.8v-14.9c0,6.1-1.9,12.2-7.6,17.8V354.3z"/>
			<path class="st13" d="M455.3,206.4v-1.5c-10.5,3.2-21.9,4.8-34.3,4.9v16.3c2.9,0,4.8-0.1,7.6-0.3v-4v4c4.8-0.3,9.5-0.9,15.2-1.8
				v-4.2v4.2c8.6-1.7,18.1-4.4,25.7-8.2v-3.1v3.1c1-0.5,1.9-1,2.8-1.5c1.4-0.8,2-1.6,3.9-2.4v-16.3c-1.9,0.8-2.5,1.6-3.9,2.4
				c-2.1,1.2-4.7,2.2-6.6,3.2v1.2v-1.2c-3.8,1.4-6.7,2.6-10.5,3.7V206.4z"/>
			<path class="st11" d="M474.4,348.9v1.2V348.9c-1,0.4-1.6,0.7-2.3,1.1c-1.6,0.9-3.4,1.7-5.4,2.5v14.9c1.9-0.8,3.4-1.6,5-2.5
				c3.1-1.7,6.4-3.5,8.3-5.4v-14.9C478.2,346.1,476.3,347.6,474.4,348.9z"/>
			<path class="st12" d="M434.4,361v1.2V361c-8.6,0.9-18.1,1-26.7,0.2v1v-1c-1.9-0.2-4.8-0.5-7.6-0.9v14.9
				c22.9,3.4,48.6,0.8,66.7-7.9v-14.9C457.2,356.9,445.8,359.8,434.4,361z"/>
			<path class="st15" d="M370.6,351.5v14.9c8.6,4.3,19.1,7.3,29.5,8.9v-14.9C389.6,358.8,379.1,355.8,370.6,351.5z"/>
			<path class="st11" d="M480.1,344.6v14.9c2.9-1.7,4.8-3.5,5.7-5.3v-14.9C484.9,341.2,483,342.9,480.1,344.6z"/>
			<path class="st14" d="M472.2,184.7c-2.1,1.2-4.5,2.2-6.4,3.2v13.3c1.9-1,4.5-2,6.6-3.2c1.4-0.8,2-1.6,3.9-2.4v-1.5v1.5
				c2.9-2.1,5.7-4.3,8.6-6.6v-2.7v2.7c5.7-6,8.6-12.8,8.6-19.5v-13.3C493.4,166.6,486.6,176.9,472.2,184.7z"/>
			<path class="st11" d="M484.9,189.1v16.3c5.7-6,8.6-12.8,8.6-19.5v-16.3C493.4,176.3,490.6,183,484.9,189.1z"/>
			<path class="st11" d="M488.7,248.2v-3.7c-1.9,2.7-4.8,5.3-7.6,7.7v23.2c8.6-6.7,12.4-14.5,12.4-22.4v-23.2c0,5-1.9,10-4.8,14.7
				V248.2z"/>
			<path class="st11" d="M488.7,244.6c2.9-4.7,4.8-9.7,4.8-14.7v-11.8c0,5-1.9,10-4.8,14.7V244.6z"/>
			<path class="st14" d="M484.9,205.3v1.9V205.3c-2.9,2.3-5.7,4.6-8.6,6.6v1.3V212c-1.9,0.8-2.5,1.6-3.9,2.4c-0.9,0.5-1.8,1-2.8,1.5
				v6.8c1-0.5,1.6-1,2.5-1.5c2.7-1.5,5.1-3,7-4.6v-1.3v1.3c9.5-7.1,14.3-15.5,14.3-23.8v-6.8C493.4,192.6,490.6,199.3,484.9,205.3z"
				/>
			<path class="st13" d="M479.2,229.2v0.7V229.2c-1.9,1.6-4.3,3.2-7,4.6c-1.8,1-3.5,1.9-5.4,2.8v12.7c1.9-0.9,3.7-1.8,5.6-2.8
				c7.4-4.1,12.5-8.8,16.3-13.8v-2.9v2.9c2.9-4.7,4.8-9.7,4.8-14.7v-12.7C493.4,213.8,488.7,222.2,479.2,229.2z"/>
			<path class="st15" d="M479.2,216.5v12.7c9.5-7.1,14.3-15.5,14.3-23.8v-12.7C493.4,201.1,488.7,209.5,479.2,216.5z"/>
			<path class="st14" d="M481.1,275.4v3.6V275.4c-1.9,2.2-5.7,4.2-9.2,6.1c-0.1,0.1-0.3,0.1-0.3,0.2v14.9c0-0.1,0.3-0.1,0.4-0.2
				c14.4-7.9,21.5-18.2,21.5-28.5v-14.9C493.4,260.9,489.6,268.7,481.1,275.4z"/>
			<path class="st11" d="M351.5,201.2c-3.8-4.9-5.7-10.1-5.7-15.4v6.8c0,5.2,1.9,10.5,5.7,15.4V201.2z"/>
			<path class="st14" d="M351.5,197.8v3.5c1.9,2.1,3.8,4.2,5.7,6.1v-16.3c-1-1-1.9-2.1-2.9-3.1v0.4V188c-5.7-5.8-8.6-12.1-8.6-18.4
				v16.3c0,5.2,1.9,10.5,5.7,15.4V197.8z"/>
			<path class="st13" d="M357.2,226.9v-12.7c-1.9-2-3.8-4-5.7-6.1v2.7v-2.7c-3.8-4.9-5.7-10.1-5.7-15.4v12.7
				C345.8,212.9,349.6,220.4,357.2,226.9z"/>
			<path class="st11" d="M354.4,174.7c-5.7-5.8-8.6-12.1-8.6-18.4v13.3c0,6.3,2.9,12.6,8.6,18.4V174.7z"/>
			<path class="st12" d="M358.2,240.6v-0.9V240.6c2.9,2.1,6,4.2,9.5,6c0.8,0.5,2,0.9,2.9,1.3v-12.7c-1-0.4-2-0.9-2.8-1.3
				c-4-2.2-7.6-4.5-10.5-7v1.6v-1.6c-7.6-6.6-11.4-14-11.4-21.5v12.7C345.8,226,349.6,233.8,358.2,240.6z"/>
			<path class="st12" d="M393.4,193.8v13.3c8.6,1.9,18.1,2.8,27.6,2.7v-0.5v0.5c12.4-0.1,23.8-1.8,34.3-4.9v-13.3
				c-7.6,2.2-15.2,3.6-22.9,4.4v0.8V196C419.1,197.2,405.8,196.4,393.4,193.8z"/>
			<path class="st11" d="M465.8,201.3v-13.3c-3.8,1.4-6.7,2.6-10.5,3.7v13.3C459.2,203.9,462,202.7,465.8,201.3z"/>
			<linearGradient id="SVGID_7_" gradientUnits="userSpaceOnUse" x1="345.7798" y1="171.09" x2="493.4496" y2="171.09">
				<stop  offset="0.1018" style="stop-color:#B7BDE8"/>
				<stop  offset="0.1845" style="stop-color:#C7CBEC"/>
				<stop  offset="0.3233" style="stop-color:#DBDDF2"/>
				<stop  offset="0.4818" style="stop-color:#E9E9F6"/>
				<stop  offset="0.6748" style="stop-color:#F1F1F8"/>
				<stop  offset="1" style="stop-color:#F4F3F9"/>
			</linearGradient>
			<path class="st16" d="M472.1,174.2c-11.2,6.1-25.2,9.9-39.8,11.2c-15.6,1.4-31.8,0.1-46.2-3.9c-6.6-1.9-12.9-4.3-18.4-7.3
				c-14.5-7.9-21.8-18.2-21.8-28.5v10.6c0,6.3,2.8,12.6,8.3,18.4c3,3.2,6.9,6.2,11.6,9c0.6,0.4,1.2,0.7,1.9,1.1
				c5.6,3,11.8,5.5,18.4,7.3c2.3,0.7,4.7,1.2,7.2,1.8c12.5,2.6,26,3.3,39,2.1c8-0.7,15.8-2.2,23.1-4.4c3.5-1.1,6.9-2.3,10.2-3.7
				c2.3-1,4.4-2,6.5-3.2c14.4-7.9,21.4-18.2,21.4-28.5v-10.6C493.4,156,486.4,166.3,472.1,174.2z"/>
			<path class="st15" d="M345.8,321.5v14.9c0,6.3,2.9,12.7,8.6,18.4v-14.9C348.6,334.2,345.8,327.9,345.8,321.5z"/>
			<path class="st14" d="M361,339v-16.1c-10.5-7.1-15.2-15.6-15.2-24.1v16.1C345.8,323.4,350.5,331.9,361,339z"/>
			<path class="st15" d="M361,322.9v-2.2V322.9c1.9,1.5,4.4,3,6.9,4.4c2.6,1.4,5.5,2.7,8.3,3.9v-7.5c-2.9-1.2-5.8-2.5-8.4-3.9
				c-0.7-0.4-1.1-0.7-2-1.1v1.1v-1.1c-2.9-1.8-5.7-3.8-8.6-5.9v2.1v-2.1c-7.6-6.6-11.4-14-11.4-21.5v7.5
				C345.8,307.3,350.5,315.8,361,322.9z"/>
			<path class="st14" d="M354.4,337.8v2.1c2.9,3.6,7.8,7,13.4,10.1c1,0.5,1.8,1,2.8,1.5v-2.3v2.3c8.6,4.3,19.1,7.3,29.5,8.9v-0.7
				v0.7c2.9,0.4,5.7,0.7,7.6,0.9v-6.7c-4.8-0.4-9.5-1.1-13.3-2v1.4v-1.4c-6.7-1.3-12.4-3.1-18.1-5.3v3.3v-3.3
				c-2.9-1.2-5.7-2.5-8.3-3.9c-2.5-1.4-5-2.8-6.9-4.3v1.3V339c-10.5-7.1-15.2-15.6-15.2-24.1v6.7c0,6.3,2.9,12.6,8.6,18.4V337.8z"/>
			<path class="st15" d="M358.2,252.4v-11.8c-8.6-6.8-12.4-14.6-12.4-22.4v11.8C345.8,237.8,349.6,245.6,358.2,252.4z"/>
			<path class="st13" d="M367.8,350c-5.6-3-10.6-6.4-13.4-10.1v14.9c2.9,3.6,7.8,7,13.4,10.1c1,0.5,1.8,1,2.8,1.5v-14.9
				C369.6,351,368.7,350.5,367.8,350z"/>
			<path class="st12" d="M365.8,280.5v-23.2c-2.9-1.6-4.8-3.2-7.6-5v2.6v-2.6c-8.6-6.8-12.4-14.6-12.4-22.4v23.2
				C345.8,262.9,352.4,272.8,365.8,280.5z"/>
			<path class="st11" d="M357.2,312.8v-23.2c-7.6-6.6-11.4-14-11.4-21.5v23.2C345.8,298.7,349.6,306.2,357.2,312.8z"/>
			<path class="st14" d="M357.2,289.5v-1.9V289.5c2.9,2.1,5.7,4,8.6,5.9V293v2.4c1,0.4,1.2,0.7,1.9,1.1c2.7,1.5,5.7,2.8,8.6,4v-14.9
				c-2.9-1.2-5.9-2.5-8.6-4c-0.7-0.4-0.9-0.7-1.9-1.1v3v-3c-13.3-7.7-20-17.6-20-27.4V268C345.8,275.5,349.6,283,357.2,289.5z"/>
			<linearGradient id="SVGID_8_" gradientUnits="userSpaceOnUse" x1="370.0817" y1="266.4824" x2="478.6885" y2="266.4824">
				<stop  offset="0" style="stop-color:#1ACCA8"/>
				<stop  offset="1" style="stop-color:#33FFD6;stop-opacity:0"/>
			</linearGradient>
			<path class="st17" d="M472.1,184.7c-28.8,15.7-75.6,15.7-104.5,0c-14.5-7.9-21.8-18.2-21.8-28.5v180.2
				c0.1,10.3,7.3,20.6,21.8,28.5c29,15.7,75.8,15.7,104.5,0c14.4-7.9,21.5-18.2,21.5-28.5V156.2
				C493.7,166.5,486.5,176.9,472.1,184.7z"/>
		</g>
		<g>
			<path class="st18" d="M345.8,336.5c0,10.3,7.3,20.6,21.8,28.5c29,15.7,75.7,15.7,104.5,0c14.4-7.9,21.4-18.2,21.4-28.5V140.1
				H345.8V336.5z"/>
			<path class="st18" d="M345.8,321.5c0.1,10.3,7.3,20.6,21.8,28.5c29,15.7,75.8,15.7,104.5,0c14.4-7.9,21.5-18.2,21.5-28.5"/>
			<path class="st18" d="M345.8,298.8c0.1,10.3,7.3,20.6,21.8,28.5c29,15.7,75.8,15.7,104.5,0c14.4-7.9,21.5-18.2,21.5-28.5"/>
			<path class="st18" d="M345.8,291.2c0.1,10.3,7.3,20.6,21.8,28.5c29,15.7,75.8,15.7,104.5,0c14.4-7.9,21.5-18.2,21.5-28.5"/>
			<path class="st18" d="M345.8,268c0.1,10.3,7.3,20.6,21.8,28.5c29,15.7,75.8,15.7,104.5,0c14.4-7.9,21.5-18.2,21.5-28.5"/>
			<path class="st18" d="M345.8,253.1c0.1,10.3,7.3,20.6,21.8,28.5c29,15.7,75.8,15.7,104.5,0c14.4-7.9,21.5-18.2,21.5-28.5"/>
			<path class="st18" d="M345.8,229.9c0.1,10.3,7.3,20.6,21.8,28.5c29,15.7,75.8,15.7,104.5,0c14.4-7.9,21.5-18.2,21.5-28.5"/>
			<path class="st18" d="M345.8,218.1c0.1,10.3,7.3,20.6,21.8,28.5c29,15.7,75.8,15.7,104.5,0c14.4-7.9,21.5-18.2,21.5-28.5"/>
			<path class="st18" d="M345.8,314.9c0.1,10.3,7.3,20.6,21.8,28.5c29,15.7,75.8,15.7,104.5,0c14.4-7.9,21.5-18.2,21.5-28.5"/>
			<path class="st18" d="M345.8,205.4c0.1,10.3,7.3,20.6,21.8,28.5c29,15.7,75.8,15.7,104.5,0c14.4-7.9,21.5-18.2,21.5-28.5"/>
			<path class="st18" d="M345.8,192.7c0.1,10.3,7.3,20.6,21.8,28.5c29,15.7,75.8,15.7,104.5,0c14.4-7.9,21.5-18.2,21.5-28.5"/>
			<path class="st18" d="M345.8,185.8c0.1,10.3,7.3,20.6,21.8,28.5c29,15.7,75.8,15.7,104.5,0c14.4-7.9,21.5-18.2,21.5-28.5"/>
			<path class="st18" d="M345.8,169.6c0.1,10.3,7.3,20.6,21.8,28.5c29,15.7,75.8,15.7,104.5,0c14.4-7.9,21.5-18.2,21.5-28.5"/>
			<path class="st18" d="M345.8,156.2c0.1,10.3,7.3,20.6,21.8,28.5c29,15.7,75.8,15.7,104.5,0c14.4-7.9,21.5-18.2,21.5-28.5"/>
			<path class="st18" d="M345.8,145.7c0.1,10.3,7.3,20.6,21.8,28.5c29,15.7,75.8,15.7,104.5,0c14.4-7.9,21.5-18.2,21.5-28.5"/>
			<path class="st18" d="M386,191.9"/>
			<path class="st18" d="M386,181.3"/>
			<path class="st18" d="M432.3,195.9"/>
			<path class="st18" d="M432.3,185.4"/>
			<path class="st18" d="M472.1,184.7"/>
			<path class="st18" d="M472.1,174.1"/>
			<line class="st18" x1="465.8" y1="187.8" x2="465.8" y2="201.1"/>
			<line class="st18" x1="455.3" y1="191.6" x2="455.3" y2="204.9"/>
			<line class="st18" x1="393.4" y1="194.4" x2="393.4" y2="206.8"/>
			<line class="st18" x1="365.8" y1="184" x2="365.8" y2="196.4"/>
			<line class="st18" x1="354.4" y1="174.4" x2="354.4" y2="187.8"/>
			<line class="st18" x1="357.2" y1="190.6" x2="357.2" y2="206.8"/>
			<line class="st18" x1="371.5" y1="200.2" x2="371.5" y2="216.4"/>
			<line class="st18" x1="381" y1="204" x2="381" y2="219.2"/>
			<line class="st18" x1="421" y1="209.7" x2="421" y2="225.9"/>
			<line class="st18" x1="476.3" y1="195.4" x2="476.3" y2="211.6"/>
			<line class="st18" x1="484.9" y1="188.7" x2="484.9" y2="204.9"/>
			<line class="st18" x1="469.6" y1="216.4" x2="469.6" y2="222.1"/>
			<line class="st18" x1="443.9" y1="224.9" x2="443.9" y2="230.7"/>
			<line class="st18" x1="428.7" y1="225.9" x2="428.7" y2="232.6"/>
			<line class="st18" x1="388.7" y1="222.1" x2="388.7" y2="228.7"/>
			<line class="st18" x1="362" y1="211.6" x2="362" y2="217.3"/>
			<line class="st18" x1="351.5" y1="201.1" x2="351.5" y2="207.8"/>
			<line class="st18" x1="357.2" y1="214.5" x2="357.2" y2="225.9"/>
			<line class="st18" x1="407.7" y1="232.6" x2="407.7" y2="244.9"/>
			<line class="st18" x1="434.4" y1="232.6" x2="434.4" y2="244.9"/>
			<line class="st18" x1="479.2" y1="216.4" x2="479.2" y2="228.7"/>
			<line class="st18" x1="466.8" y1="236.4" x2="466.8" y2="249.7"/>
			<line class="st18" x1="395.3" y1="243" x2="395.3" y2="256.4"/>
			<line class="st18" x1="370.6" y1="235.4" x2="370.6" y2="247.8"/>
			<line class="st18" x1="358.2" y1="240.2" x2="358.2" y2="252.6"/>
			<line class="st18" x1="380.1" y1="252.6" x2="380.1" y2="264"/>
			<line class="st18" x1="409.6" y1="258.3" x2="409.6" y2="269.7"/>
			<line class="st18" x1="434.4" y1="257.3" x2="434.4" y2="268.8"/>
			<line class="st18" x1="443.9" y1="256.4" x2="443.9" y2="267.8"/>
			<line class="st18" x1="488.7" y1="232.6" x2="488.7" y2="244"/>
			<line class="st18" x1="481.1" y1="252.6" x2="481.1" y2="275.4"/>
			<line class="st18" x1="421" y1="270.7" x2="421" y2="292.6"/>
			<line class="st18" x1="365.8" y1="257.3" x2="365.8" y2="280.2"/>
			<line class="st18" x1="376.3" y1="285.9" x2="376.3" y2="300.2"/>
			<line class="st18" x1="406.8" y1="292.6" x2="406.8" y2="307.8"/>
			<line class="st18" x1="471.5" y1="282.1" x2="471.5" y2="296.4"/>
			<line class="st18" x1="357.2" y1="289.7" x2="357.2" y2="312.6"/>
			<line class="st18" x1="365.8" y1="295.4" x2="365.8" y2="318.3"/>
			<line class="st18" x1="419.1" y1="308.8" x2="419.1" y2="330.7"/>
			<line class="st18" x1="434.4" y1="307.8" x2="434.4" y2="338.3"/>
			<line class="st18" x1="449.6" y1="305.9" x2="449.6" y2="335.4"/>
			<line class="st18" x1="462" y1="302.1" x2="462" y2="324"/>
			<line class="st18" x1="406.8" y1="330.7" x2="406.8" y2="338.3"/>
			<line class="st18" x1="474.4" y1="320.2" x2="474.4" y2="325.9"/>
			<line class="st18" x1="376.3" y1="324" x2="376.3" y2="346.9"/>
			<line class="st18" x1="361" y1="323.1" x2="361" y2="339.3"/>
			<line class="st18" x1="394.4" y1="336.4" x2="394.4" y2="352.6"/>
			<line class="st18" x1="456.3" y1="335.4" x2="456.3" y2="349.7"/>
			<line class="st18" x1="407.7" y1="354.5" x2="407.7" y2="361.2"/>
			<line class="st18" x1="434.4" y1="354.5" x2="434.4" y2="360.2"/>
			<line class="st18" x1="474.4" y1="343.1" x2="474.4" y2="348.8"/>
			<line class="st18" x1="354.4" y1="340.2" x2="354.4" y2="355.5"/>
			<line class="st18" x1="370.6" y1="351.6" x2="370.6" y2="365.9"/>
			<line class="st18" x1="400.1" y1="360.2" x2="400.1" y2="375.5"/>
			<line class="st18" x1="466.8" y1="352.6" x2="466.8" y2="367.8"/>
			<line class="st18" x1="480.1" y1="345" x2="480.1" y2="359.3"/>
			<line class="st18" x1="485.8" y1="339.3" x2="485.8" y2="354.5"/>
		</g>
	</g>
	<g>
		<defs>
			<polyline id="SVGID_9_" points="303.4,338.9 315.8,369.4 344.8,388.4 344.8,189.6 420.1,145.9 526.8,145.9 526.8,105.4 
				502.1,81.1 345,81.1 303.6,122.3 303.4,338.9 			"/>
		</defs>
		<clipPath id="SVGID_10_">
			<use xlink:href="#SVGID_9_"  style="overflow:visible;"/>
		</clipPath>
		<g class="st19">
			<path class="st20" d="M524.8,146.8c-0.1-15.5-10.5-31.1-31-43c-41.1-23.7-107.5-23.7-148.4,0c-20.4,11.9-30.4,27.4-30.3,43h0.2
				v189.1c0,16.3,9.1,32.9,30.7,45.3c41.1,23.7,107.4,23.7,148.2,0c21.5-12.5,30.4-28.2,30.4-45.4l0.2-14.2V146.8H524.8z"/>
			<path class="st20" d="M524.9,146.8L524.9,146.8c-0.5-15.3-11.3-31.3-31.4-42.9c-41-23.8-107.2-23.8-147.9,0
				c-20.3,11.8-30.4,27.4-30.3,42.9c0,0,0.1,0,0.1,0c0,0,0,0.1,0,0.1l0,0v189.1c0,16.3,9.3,32.9,30.8,45.3
				c41.1,23.7,107.5,23.7,148.3,0c21.5-12.5,30.3-28.2,30.3-45.4l0.1-14.2L524.9,146.8L524.9,146.8z"/>
			<linearGradient id="SVGID_11_" gradientUnits="userSpaceOnUse" x1="491.2614" y1="202.7656" x2="348.3354" y2="91.0996">
				<stop  offset="0" style="stop-color:#8A9ADC;stop-opacity:0"/>
				<stop  offset="1" style="stop-color:#8A9ADC;stop-opacity:0.9"/>
			</linearGradient>
			<path class="st21" d="M493.5,103.9c41,23.8,41.2,62.3,0.5,86.1s-107,23.8-148,0s-41.2-62.3-0.5-86.1S452.5,80.1,493.5,103.9z"/>
			<g>
				<defs>
					<path id="SVGID_12_" d="M524.8,146.8c0.1,15.5-10.1,31.1-30.5,43c-40.8,23.7-107.3,23.7-148.4,0c-20.6-11.9-30.9-27.5-31-43
						c0,0,0.2,0.1,0.2,0.1h0.2v189.1c0,16.3,9.1,32.9,30.7,45.3c41.1,23.7,107.4,23.7,148.2,0c21.5-12.5,30.4-28.2,30.4-45.4
						l0.2-14.2V146.8H524.8z"/>
				</defs>
				<clipPath id="SVGID_13_">
					<use xlink:href="#SVGID_12_"  style="overflow:visible;"/>
				</clipPath>
				<linearGradient id="SVGID_14_" gradientUnits="userSpaceOnUse" x1="315.1808" y1="272.8734" x2="524.9168" y2="272.8734">
					<stop  offset="0" style="stop-color:#8A9ADC;stop-opacity:0.9"/>
					<stop  offset="0.4084" style="stop-color:#8A9ADC;stop-opacity:0"/>
					<stop  offset="0.6979" style="stop-color:#8A9ADC;stop-opacity:0.6"/>
					<stop  offset="0.8152" style="stop-color:#8A9ADC;stop-opacity:0"/>
					<stop  offset="1" style="stop-color:#8A9ADC;stop-opacity:0.9"/>
				</linearGradient>
				<path class="st22" d="M524.9,146.8c0.1,15.5-10.1,31.1-30.5,43c-40.8,23.7-107.2,23.7-148.3,0c-20.6-11.9-30.9-27.5-31-43
					c0,0,0.1,0.1,0.1,0.1h0.1v189.1c0,16.3,9.3,32.9,30.8,45.3c41.1,23.7,107.5,23.7,148.3,0c21.5-12.5,30.3-28.2,30.3-45.4
					l0.1-14.2L524.9,146.8L524.9,146.8z"/>
				<g class="st23">
					<g>
						<path class="st24" d="M525.3,194.5c0.6,5.7,0.1,11.7-1.7,17.3c-1.8,5.6-4.8,10.9-8.5,15.5c-3.8,4.6-8.2,8.6-12.9,12
							c-4.8,3.4-9.8,6.3-15.1,8.8c-10.5,5.1-21.6,8.5-32.9,10.9c-11.3,2.4-22.8,3.4-34.3,3.5c-11.5,0-23-1-34.4-3.4
							c-11.3-2.3-22.5-5.7-32.9-10.8c-5.2-2.5-10.3-5.4-15.1-8.9c-4.8-3.5-9.2-7.5-12.9-12.1c-0.2-0.3-0.5-0.6-0.7-0.9l-0.7-0.9
							l-1.3-1.8c-0.8-1.2-1.6-2.5-2.4-3.8c-0.7-1.3-1.4-2.6-2-4l-0.9-2.1c-0.3-0.7-0.5-1.4-0.7-2.1c-1.9-5.6-2.5-11.6-1.7-17.3
							c0-0.4,0.4-0.7,0.8-0.6c0.3,0,0.6,0.3,0.6,0.6l0,0.1c0.3,1.4,0.4,2.7,0.8,4.1c0.2,0.7,0.3,1.3,0.5,2l0.6,2
							c0.2,0.7,0.4,1.3,0.6,1.9c0.2,0.6,0.4,1.3,0.7,1.9l0.8,1.8c0.2,0.6,0.6,1.2,0.9,1.8c2.4,4.7,5.6,9,9.4,12.7
							c3.7,3.7,7.9,7,12.4,9.9c4.5,2.9,9.2,5.5,14.1,7.7c9.9,4.4,20.4,7.4,31,9.4c5.3,1,10.8,1.8,16.2,2.2
							c5.4,0.5,10.9,0.8,16.3,0.8c5.5,0,10.9-0.2,16.4-0.7c1.4-0.1,2.7-0.2,4.1-0.4l4.1-0.5l4-0.6c1.3-0.2,2.7-0.5,4-0.7
							c10.7-1.9,21.3-4.9,31.1-9.3c4.9-2.2,9.7-4.8,14.2-7.7c4.5-2.9,8.7-6.2,12.4-10c3.7-3.8,6.8-8.1,9.1-12.9
							c0.3-0.6,0.6-1.2,0.8-1.8c0.3-0.6,0.5-1.2,0.8-1.9l0.6-1.9c0.1-0.3,0.2-0.6,0.3-1l0.3-1l0.5-2l0.4-2l0.2-1l0.1-1l0.3-2.1l0,0
							c0.1-0.4,0.5-0.8,0.9-0.7C525,193.8,525.3,194.1,525.3,194.5z"/>
					</g>
					<g>
						<path class="st24" d="M525.3,240c0.6,5.7,0.1,11.7-1.7,17.3c-1.8,5.6-4.8,10.9-8.5,15.5c-3.8,4.6-8.2,8.6-12.9,12
							c-4.8,3.4-9.8,6.3-15.1,8.8c-10.5,5.1-21.6,8.5-32.9,10.9c-11.3,2.4-22.8,3.4-34.3,3.5c-11.5,0-23-1-34.4-3.4
							c-11.3-2.3-22.5-5.7-32.9-10.8c-5.2-2.5-10.3-5.4-15.1-8.9c-4.8-3.5-9.2-7.5-12.9-12.1c-0.2-0.3-0.5-0.6-0.7-0.9l-0.7-0.9
							l-1.3-1.8c-0.8-1.2-1.6-2.5-2.4-3.8c-0.7-1.3-1.4-2.6-2-4l-0.9-2.1c-0.3-0.7-0.5-1.4-0.7-2.1c-1.9-5.6-2.5-11.6-1.7-17.3
							c0-0.4,0.4-0.7,0.8-0.6c0.3,0,0.6,0.3,0.6,0.6l0,0.1c0.3,1.4,0.4,2.7,0.8,4.1c0.2,0.7,0.3,1.3,0.5,2l0.6,2
							c0.2,0.7,0.4,1.3,0.6,1.9c0.2,0.6,0.4,1.3,0.7,1.9l0.8,1.8c0.2,0.6,0.6,1.2,0.9,1.8c2.4,4.7,5.6,9,9.4,12.7
							c3.7,3.7,7.9,7,12.4,9.9c4.5,2.9,9.2,5.5,14.1,7.7c9.9,4.4,20.4,7.4,31,9.4c5.3,1,10.8,1.8,16.2,2.2
							c5.4,0.5,10.9,0.8,16.3,0.8c5.5,0,10.9-0.2,16.4-0.7c1.4-0.1,2.7-0.2,4.1-0.4l4.1-0.5l4-0.6c1.3-0.2,2.7-0.5,4-0.7
							c10.7-1.9,21.3-4.9,31.1-9.3c4.9-2.2,9.7-4.8,14.2-7.7c4.5-2.9,8.7-6.2,12.4-10c3.7-3.8,6.8-8.1,9.1-12.9
							c0.3-0.6,0.6-1.2,0.8-1.8c0.3-0.6,0.5-1.2,0.8-1.9l0.6-1.9c0.1-0.3,0.2-0.6,0.3-1l0.3-1l0.5-2l0.4-2l0.2-1l0.1-1l0.3-2.1l0,0
							c0.1-0.4,0.5-0.8,0.9-0.7C525,239.3,525.3,239.6,525.3,240z"/>
					</g>
					<g>
						<path class="st24" d="M525.2,286.1c0.7,5.8-0.1,11.7-2,17.3c-1.9,5.6-4.9,10.9-8.6,15.5c-3.7,4.6-8.1,8.7-12.9,12.2
							c-2.4,1.7-4.9,3.3-7.4,4.8c-1.3,0.7-2.5,1.5-3.8,2.1c-1.3,0.7-2.6,1.4-3.9,2c-10.5,5-21.7,8.5-33,10.8
							c-5.7,1.1-11.4,2-17.2,2.6c-5.8,0.5-11.5,0.8-17.3,0.8c-5.8,0-11.6-0.3-17.3-0.9c-5.8-0.6-11.5-1.5-17.2-2.6
							c-11.3-2.4-22.5-6-33-11.1l-3.9-2l-3.8-2.2c-2.5-1.5-5-3.2-7.4-5c-4.7-3.7-8.9-8-12.5-12.8c-3.5-4.8-6.3-10.2-8-15.8
							c-1.7-5.6-2.6-11.6-1.8-17.4c0.1-0.4,0.4-0.7,0.8-0.6c0.3,0,0.6,0.3,0.6,0.6l0,0c1.6,11,6.8,20.9,13.9,28.8
							c3.5,4,7.6,7.5,11.9,10.5c2.2,1.5,4.4,2.9,6.8,4.2l3.6,1.9l3.7,1.8c9.9,4.5,20.4,7.6,31.1,9.7c5.4,1,10.8,1.8,16.2,2.3
							c5.4,0.5,10.9,0.9,16.4,0.9c5.5,0,11-0.1,16.4-0.6c5.5-0.4,10.9-1.1,16.3-2.1c10.8-1.9,21.4-4.8,31.3-9.2
							c9.9-4.4,19.3-10,26.6-17.8c1.8-1.9,3.6-4,5.1-6.1c1.5-2.2,2.9-4.5,4.1-6.9c2.4-4.8,4-10.1,4.6-15.6c0.1-0.4,0.5-0.8,0.9-0.7
							C524.8,285.4,525.1,285.7,525.2,286.1z"/>
					</g>
				</g>
			</g>
			<path class="st7" d="M524.5,146.5c0,17.2-8.9,32.9-30.4,45.4c-40.8,23.7-107.2,23.7-148.3,0c-21.6-12.5-30.9-29-30.9-45.3"/>
			<path class="st8" d="M524.5,190.1c0,17.2-8.9,32.9-30.4,45.4c-40.8,23.7-107.2,23.7-148.3,0c-21.6-12.5-30.9-29-30.9-45.3"/>
			<path class="st7" d="M524.5,198.6c0,17.2-8.9,32.9-30.4,45.4c-40.8,23.7-107.2,23.7-148.3,0c-21.6-12.5-30.9-29-30.9-45.3"/>
			<path class="st8" d="M524.5,235.4c0,17.2-8.9,32.9-30.4,45.4c-40.8,23.7-107.2,23.7-148.3,0c-21.6-12.5-30.9-29-30.9-45.3"/>
			<path class="st7" d="M524.5,243.9c0,17.2-8.9,32.9-30.4,45.4c-40.8,23.7-107.2,23.7-148.3,0c-21.6-12.5-30.9-29-30.9-45.3"/>
			<path class="st8" d="M524.5,281.5c0,17.2-8.9,32.9-30.4,45.4c-40.8,23.7-107.2,23.7-148.3,0c-21.6-12.5-30.9-29-30.9-45.3"/>
			<path class="st7" d="M524.5,289.9c0,17.2-8.9,32.9-30.4,45.4c-40.8,23.7-107.2,23.7-148.3,0c-21.6-12.5-30.9-29-30.9-45.3"/>
			<path class="st8" d="M524.8,146.8c-0.1-15.5-10.5-31.1-31-43c-41.1-23.7-107.5-23.7-148.4,0c-20.4,11.9-30.4,27.4-30.3,43h0.2
				v189.1c0,16.3,9.1,32.9,30.7,45.3c41.1,23.7,107.4,23.7,148.2,0c21.5-12.5,30.4-28.2,30.4-45.4l0.2-14.2V146.8H524.8z"/>
			<path class="st8" d="M524.5,144.7c0,17.2-8.9,32.9-30.4,45.4c-40.8,23.7-107.2,23.7-148.3,0c-21.6-12.5-30.9-29-30.9-45.3"/>
		</g>
	</g>
	<polyline class="st8" points="344.8,380.2 344.8,189.6 420.1,145.9 524.9,145.9 524.9,336.4 495.4,336.4 	"/>
	<g>
		
			<ellipse transform="matrix(2.520573e-03 -1 1 2.520573e-03 273.0821 565.0885)" class="st25" cx="419.8" cy="145.7" rx="40.3" ry="73.9"/>
		<path class="st26" d="M426.8,145.9l0-2.9c0-0.6-0.5-1.2-1.2-1.6c-0.7-0.4-1.7-0.7-2.8-0.7l-30.2,0c-2.2,0-4,1-4,2.3l0.1,17.5
			c0,0.6,0.4,1.2,1.2,1.6c0.4,0.2,0.9,0.4,1.4,0.5c0.5,0.1,1,0.2,1.5,0.2l27.3,0h2.8c2.2,0,4-1,4-2.3L426.8,145.9z M451,129
			c0-0.6-0.5-1.2-1.2-1.6c-0.7-0.4-1.7-0.7-2.8-0.7h-13.5c-2.2,0-4,1-4,2.3l0,7.8c0,0.6,0.5,1.2,1.2,1.6c0.7,0.4,1.7,0.7,2.8,0.7
			H447c2.2,0,4-1,4-2.3L451,129z"/>
	</g>
	<linearGradient id="SVGID_15_" gradientUnits="userSpaceOnUse" x1="319.0442" y1="374.1498" x2="381.6353" y2="216.1859">
		<stop  offset="0" style="stop-color:#D0D2F0"/>
		<stop  offset="1" style="stop-color:#F4F3F9"/>
	</linearGradient>
	<polygon class="st27" points="344.8,189.6 369.6,175.2 369.6,366 344.8,380.5 	"/>
	<g>
		<linearGradient id="SVGID_16_" gradientUnits="userSpaceOnUse" x1="344.8271" y1="232.0814" x2="369.5975" y2="232.0814">
			<stop  offset="0" style="stop-color:#A0AAE1"/>
			<stop  offset="0.2912" style="stop-color:#72C9DC"/>
			<stop  offset="0.6081" style="stop-color:#46E6D6"/>
			<stop  offset="0.8551" style="stop-color:#2BF8D3"/>
			<stop  offset="1" style="stop-color:#21FFD2"/>
		</linearGradient>
		<polygon class="st28" points="344.8,243.4 344.8,235.2 369.6,220.8 369.6,229.1 		"/>
		<line class="st7" x1="345" y1="243.4" x2="369.7" y2="228.9"/>
		<line class="st8" x1="345" y1="235.2" x2="369.7" y2="220.8"/>
	</g>
	<g>
		<linearGradient id="SVGID_17_" gradientUnits="userSpaceOnUse" x1="344.8271" y1="277.2277" x2="369.5975" y2="277.2277">
			<stop  offset="0" style="stop-color:#A0AAE1"/>
			<stop  offset="0.2912" style="stop-color:#72C9DC"/>
			<stop  offset="0.6081" style="stop-color:#46E6D6"/>
			<stop  offset="0.8551" style="stop-color:#2BF8D3"/>
			<stop  offset="1" style="stop-color:#21FFD2"/>
		</linearGradient>
		<polygon class="st29" points="344.8,288.5 344.8,280.4 369.6,265.9 369.6,274.2 		"/>
		<line class="st7" x1="345" y1="288.5" x2="369.7" y2="274.1"/>
		<line class="st8" x1="345" y1="280.4" x2="369.7" y2="265.9"/>
	</g>
	<g>
		<linearGradient id="SVGID_18_" gradientUnits="userSpaceOnUse" x1="344.8271" y1="323.4601" x2="369.5975" y2="323.4601">
			<stop  offset="0" style="stop-color:#A0AAE1"/>
			<stop  offset="0.2912" style="stop-color:#72C9DC"/>
			<stop  offset="0.6081" style="stop-color:#46E6D6"/>
			<stop  offset="0.8551" style="stop-color:#2BF8D3"/>
			<stop  offset="1" style="stop-color:#21FFD2"/>
		</linearGradient>
		<polygon class="st30" points="344.8,334.8 344.8,326.6 369.6,312.2 369.6,320.5 		"/>
		<line class="st7" x1="345" y1="334.8" x2="369.7" y2="320.3"/>
		<line class="st8" x1="345" y1="326.6" x2="369.7" y2="312.2"/>
	</g>
	<polygon class="st8" points="344.8,189.6 369.6,175.2 369.6,366 344.8,380.5 	"/>
	<g class="st31">
		<linearGradient id="SVGID_19_" gradientUnits="userSpaceOnUse" x1="328.808" y1="-11.3032" x2="511.5398" y2="490.7483">
			<stop  offset="0.1671" style="stop-color:#8A9ADC;stop-opacity:0"/>
			<stop  offset="0.5058" style="stop-color:#8A9ADC"/>
			<stop  offset="0.8447" style="stop-color:#8A9ADC;stop-opacity:0"/>
		</linearGradient>
		<path class="st32" d="M626.7,130.1l0,201.2l-0.2,15.3c-0.1,27.1-7.5,52.3-21.8,74.8c-13.5,21.1-32.6,39.2-56.9,53.3
			c-3.1,1.8-6.3,3.6-9.6,5.2H301.9c-3.2-1.6-6.3-3.3-9.4-5.1c-25.2-14.5-44.7-33.1-58.4-55c-13.9-22.3-20.8-47.2-20.8-73.8V130.8
			c-1-51.5,27.6-96.3,78.6-126c2.8-1.6,5.7-3.2,8.7-4.7h237.9c2.9,1.5,5.7,3,8.5,4.6C598.1,34.1,626.4,78.7,626.7,130.1z"/>
		<linearGradient id="SVGID_20_" gradientUnits="userSpaceOnUse" x1="334.7532" y1="4.9542" x2="505.6301" y2="474.4346">
			<stop  offset="0.1671" style="stop-color:#8A9ADC;stop-opacity:0"/>
			<stop  offset="0.5058" style="stop-color:#8A9ADC"/>
			<stop  offset="0.8447" style="stop-color:#8A9ADC;stop-opacity:0"/>
		</linearGradient>
		<path class="st33" d="M607.6,130.3l0,200.9l-0.2,15.4c-0.1,23.5-6.4,45.3-18.8,64.7c-11.8,18.5-28.8,34.5-50.4,47
			C522,467.7,503.7,475,484,480H356.3c-19.6-5-37.9-12.3-54.1-21.6c-45.1-26.1-69.8-66.1-69.8-112.3V130.8
			c-1-44.5,24.2-83.4,69.1-109.5c15.8-9.2,33.8-16.3,53.2-21.2h129.6c19.4,4.9,37.5,12,53.2,21.1C582.5,47.1,607.4,85.8,607.6,130.3
			z"/>
		<linearGradient id="SVGID_21_" gradientUnits="userSpaceOnUse" x1="341.2699" y1="22.8482" x2="499.1199" y2="456.5374">
			<stop  offset="0.1671" style="stop-color:#8A9ADC;stop-opacity:0"/>
			<stop  offset="0.5058" style="stop-color:#8A9ADC"/>
			<stop  offset="0.8447" style="stop-color:#8A9ADC;stop-opacity:0"/>
		</linearGradient>
		<path class="st34" d="M420.1,468.8c-40.1,0-78.5-9.7-108.4-26.9c-39-22.5-60.3-56.7-60.3-95.8V130.7c-1-37.4,20.9-70.5,59.7-93
			c29.4-17.1,67.9-26.5,108.4-26.5c40.5,0,79,9.4,108.5,26.4c38.8,22.4,60.3,55.4,60.5,92.7l0,200.6l-0.2,15.5
			c-0.1,19.8-5.4,38.2-15.8,54.6c-10.2,15.9-24.9,29.8-43.9,40.8C498.8,459.1,460.3,468.8,420.1,468.8L420.1,468.8z"/>
		<linearGradient id="SVGID_22_" gradientUnits="userSpaceOnUse" x1="347.8858" y1="40.7042" x2="492.7139" y2="438.6162">
			<stop  offset="0.1671" style="stop-color:#8A9ADC;stop-opacity:0"/>
			<stop  offset="0.5058" style="stop-color:#8A9ADC"/>
			<stop  offset="0.8447" style="stop-color:#8A9ADC;stop-opacity:0"/>
		</linearGradient>
		<path class="st35" d="M420.1,449.8c-36.8,0-71.8-8.8-98.8-24.4c-32.9-19-50.7-47.2-50.7-79.3V130.7c-1-30.3,17.5-57.5,50.2-76.5
			c26.6-15.4,61.6-23.9,98.8-23.9c37.2,0,72.4,8.5,99.1,23.9c32.7,18.9,51.1,46,51.1,76.3v200.2l-0.3,15.5
			c-0.1,32.6-17.5,60-50.3,79.1C492.1,441,457,449.8,420.1,449.8L420.1,449.8z"/>
		<linearGradient id="SVGID_23_" gradientUnits="userSpaceOnUse" x1="352.7707" y1="54.1237" x2="487.8296" y2="425.1952">
			<stop  offset="0.1671" style="stop-color:#8A9ADC;stop-opacity:0"/>
			<stop  offset="0.5058" style="stop-color:#8A9ADC"/>
			<stop  offset="0.8447" style="stop-color:#8A9ADC;stop-opacity:0"/>
		</linearGradient>
		<path class="st36" d="M420.1,435.5c-34.4,0-66.8-8.1-91.7-22.5c-28.2-16.3-43.6-40.2-43.6-66.9V130.7c-1-25,15-47.8,43.1-64.1
			c24.4-14.2,56.9-22,91.6-22c34.7,0,67.4,7.8,91.9,22c28.1,16.3,43.9,39,43.9,64v200l-0.3,15.6c0,27.6-14.6,50.2-43.2,66.8
			C487.1,427.4,454.5,435.5,420.1,435.5L420.1,435.5z"/>
		<linearGradient id="SVGID_24_" gradientUnits="userSpaceOnUse" x1="356.0247" y1="63.0596" x2="484.5746" y2="416.2477">
			<stop  offset="0.1671" style="stop-color:#8A9ADC;stop-opacity:0"/>
			<stop  offset="0.5058" style="stop-color:#8A9ADC"/>
			<stop  offset="0.8447" style="stop-color:#8A9ADC;stop-opacity:0"/>
		</linearGradient>
		<path class="st37" d="M420.1,426c-32.7,0-63.5-7.6-86.9-21.2c-25.2-14.5-38.8-35.5-38.8-58.7V130.7c-1-21.5,13.4-41.4,38.3-55.9
			C356,61.2,386.8,54,419.5,54c32.7,0,63.7,7.2,87.2,20.7c25.1,14.5,39.1,34.3,39.1,55.9v199.8l-0.3,15.6c0,24-13,43.9-38.5,58.7
			C483.8,418.3,452.8,426,420.1,426C420.1,426,420.1,426,420.1,426z"/>
		<path class="st8" d="M536.2,130.7c-0.1-17.2-11.6-34.5-34.4-47.7c-45.6-26.3-119.3-26.3-164.6,0c-22.6,13.2-33.7,30.4-33.6,47.7
			h0.2v215.4c0,18.1,10.1,36.5,34.1,50.3c45.6,26.3,119.1,26.3,164.4,0c23.8-13.8,33.7-31.3,33.7-50.3l0.2-15.7L536.2,130.7
			L536.2,130.7z"/>
		<path class="st8" d="M536,128.9c0,19.1-9.9,36.5-33.7,50.3c-45.3,26.3-119,26.3-164.5,0c-23.9-13.8-34.3-32.2-34.3-50.3"/>
	</g>
</g>
</svg>
